#format: frame checksums
#version: 1
#hash: MD5
#tb 0: 1001/30000
#stream#, dts,        pts, duration,     size, hash
0,          0,          0,        1,    61152, 6195975181969789e101a83a555d13f7
0,          1,          1,        1,    61152, 2aca5e3307d68a5e969564a943b8e723
0,          2,          2,        1,    61152, aee4b00472ee0b6b7a13e31069181db4
0,          3,          3,        1,    61152, 7808595b650a7c14d8a4800db7c014e0
0,          4,          4,        1,    61152, 746eb763b176286aa875ae06b81118c4
0,          5,          5,        1,    61152, 0e8a78ec061319e27d49ca25e333e017
0,          6,          6,        1,    61152, ac4432db2bb0971d5f70a7dda1210c19
0,          7,          7,        1,    61152, 78870f4bd767f8ab65d369a5b322735d
0,          8,          8,        1,    61152, eee9ddd91209348a64259db6a4a3f80c
0,          9,          9,        1,    61152, c48d21e36a9c0d0d1c64db3f776b3002
